<?xml version="1.0" encoding="UTF-8"?>
<svg id="Layer_1" data-name="Layer 1" xmlns="http://www.w3.org/2000/svg" viewBox="0 0 72 72">
  <defs>
    <style>
      .cls-1 {
        fill: #ee323e;
      }

      .cls-2 {
        fill: #003974;
      }
    </style>
  </defs>
  <g id="isroBI.tif">
    <g>
      <path class="cls-2" d="m68.48,49.36c-.2.91-.3,1.83-.55,2.73-1.36,4.78-4.52,7.76-9.2,9.22-1.81.56-3.66.8-5.56.79-4.82-.02-9.64,0-14.46,0-.23,0-.47.01-.7-.02-.55-.08-1-.55-1-1.07,0-.56.28-.96.82-1.15.33-.12.67-.1,1-.1,5.22,0,10.45.12,15.66-.07,3.83-.13,7.24-1.52,9.58-4.78,1.69-2.35,2.16-5.05,2.11-7.88-.1-5.43-1.65-10.49-4.03-15.32-2.55-5.18-6.17-9.47-10.99-12.71-.16-.11-.34-.19-.48-.31-.77-.7-1.56-.54-2.42,0,.44.41.86.82,1.28,1.22.43.41.88.79,1.29,1.22.51.54.52,1.15.05,1.64-.46.48-1.09.51-1.64.01-1.07-.96-2.11-1.95-3.17-2.93-.26-.24-.51-.5-.78-.74-.12-.11-.23-.29-.42-.19-.15.08-.11.26-.11.4,0,.72,0,1.44,0,2.16,0,.21,0,.43-.04.63-.13.64-.61,1.05-1.18,1.02-.6-.03-1.09-.52-1.11-1.17-.03-.84,0-1.69-.01-2.54,0-.18.08-.42-.13-.52-.21-.09-.33.13-.47.25-1.19,1.11-2.38,2.22-3.58,3.32-.17.16-.34.33-.53.45-.5.33-1.1.24-1.49-.2-.37-.42-.4-1.08.01-1.5.62-.64,1.28-1.23,1.92-1.84.24-.23.48-.46.73-.7-.92-.54-1.69-.5-2.59.09-3.05,1.99-5.64,4.43-7.86,7.3-.12.15-.22.31-.35.45-.44.49-1.12.58-1.6.23-.51-.37-.63-1.07-.22-1.64.49-.69,1.02-1.35,1.58-1.98.34-.39.5-.79.49-1.31-.02-1.94-.02-3.89,0-5.83,0-.47-.08-.6-.57-.4-3.55,1.45-7.12,1.45-10.67-.01-.44-.18-.51-.03-.51.36,0,2.14.02,4.27,0,6.41,0,.55.27.69.73.71,1.21.05,2.38.32,3.52.75.6.22,1.16.51,1.68.88,1.11.79,1.68,1.83,1.67,3.23-.02,4.93,0,9.85,0,14.78,0,.93,0,.87.95.85,2.35-.04,4.65.22,6.72,1.45,1.33.78,2.06,1.86,2.04,3.51-.07,4.4-.05,8.8,0,13.19.01,1.3-.54,2.22-1.53,2.96-1.29.96-2.79,1.39-4.36,1.6-2.7.36-5.36.21-7.87-.97-.25-.12-.46-.19-.63.14-.67,1.26-1.83,1.89-3.09,2.39-.93.37-1.91.51-2.88.71h-3.81c-.59-.12-1.2-.2-1.78-.37-1.86-.53-3.59-1.24-4.43-3.19v-6.98c.67-1.61,2.03-2.4,3.57-2.9.58-.19.72-.47.72-1.04-.02-8.75,0-17.5-.03-26.25,0-1.37.56-2.34,1.62-3.1,1.2-.86,2.57-1.27,4-1.5.87-.14.87-.13.87-1.03,0-3.23.01-6.47,0-9.7,0-.95.33-1.73.99-2.38.47-.47,1.01-.83,1.6-1.12,2.33-1.11,4.8-1.28,7.31-1.05,1.55.14,3.04.52,4.4,1.31,1.4.82,2.19,1.96,2.14,3.67-.06,2.15-.02,4.31,0,6.47,0,.22-.09.46.13.68,1.26-1.11,2.56-2.16,3.98-3.04.46-.28.51-.45.13-.88-2.59-2.94-3.4-6.5-3.38-10.29,0-1.7,1.79-2.64,3.31-1.88.51.26.97.59,1.41.96,1.23,1.02,2.56,1,3.79-.04,2.17-1.85,4.81-1.85,6.97,0,1.22,1.05,2.55,1.06,3.78.04.52-.44,1.07-.83,1.71-1.07,1.41-.54,2.92.42,3.03,1.93.03.48.08.99-.04,1.45-.18.72.06,1.04.73,1.32,2.9,1.21,4.66,5.22,1.92,8.12-.29.3-.19.39.16.47.41.1.81.23,1.21.38,1.54.58,2.99,1.31,4.04,2.62.43.54.37,1.18-.1,1.6-.45.41-1.15.42-1.6-.06-1.52-1.61-3.49-2.22-5.59-2.58-.36-.06-.72-.23-1.15-.04.41.37.78.7,1.15,1.04.37.34.75.68,1.11,1.04,4.86,4.91,8.01,10.78,9.83,17.41.58,2.1.97,4.23,1.23,6.39v4.44Zm-58.35-6.95c0,3.66,0,7.31,0,10.97,0,1.02,0,1.05,1.05,1.01,1.95-.08,3.83.18,5.64.94.62.26.67.22.67-.47,0-2.09.03-4.19,0-6.28-.03-1.6.66-2.75,2-3.56.56-.34,1.15-.63,1.79-.81.47-.13.62-.38.62-.86-.02-4.06-.02-8.12,0-12.17,0-.56-.12-.63-.63-.42-3.49,1.41-6.99,1.41-10.49.04-.63-.25-.63-.26-.63.45,0,3.72,0,7.44,0,11.16Zm21.43,14.44c0-1.67,0-3.34,0-5.01,0-.68-.04-.69-.68-.45-3.51,1.34-7.01,1.34-10.49-.08-.52-.21-.59-.1-.59.4.02,3.25.02,6.51,0,9.76,0,.67.25,1.14.82,1.45.35.19.71.38,1.08.52,1.86.72,3.81.72,5.75.55,1.18-.11,2.32-.42,3.36-1.05.52-.31.77-.72.76-1.35-.03-1.58,0-3.17,0-4.75ZM53.22,6.92c-.06-.23.14-.56-.15-.68-.22-.09-.4.19-.58.32-.07.05-.13.11-.2.16-2.14,1.72-4.67,1.68-6.76-.09-1.27-1.08-2.69-1.08-3.96,0-2.1,1.78-4.63,1.81-6.76.08-.16-.13-.33-.26-.5-.39-.26-.18-.45-.15-.43.21.03.51.06,1.01.12,1.51.25,2.11.84,4.1,2.1,5.83.89,1.21,1.94,2.24,3.52,2.5.16.03.36.16.48.02.15-.18-.06-.35-.14-.5-.53-1.01-1.01-2.04-1.4-3.12-.17-.48-.35-.96-.44-1.45-.11-.61.24-1.12.79-1.28.56-.17,1.15.12,1.4.69.08.17.13.36.18.54.51,1.6,1.22,3.1,2.11,4.52.63,1,1.32.99,1.95-.03.91-1.46,1.61-3.02,2.14-4.65.29-.9.83-1.27,1.51-1.07.72.21.98.85.7,1.75-.44,1.42-1.02,2.77-1.72,4.08-.08.16-.28.33-.15.51.12.16.32,0,.47-.02,1.23-.21,2.16-.91,2.95-1.83,1.88-2.19,2.52-4.82,2.73-7.62ZM15.74,29.43c.99,0,1.75-.01,2.5-.15,1.02-.19,2.02-.45,2.9-1.03.9-.59.9-1.11,0-1.73-.47-.33-1-.55-1.55-.71-1.96-.57-3.94-.67-5.94-.31-1.07.19-2.11.46-2.99,1.12-.7.52-.7.99-.01,1.52.37.29.79.49,1.22.65,1.32.49,2.69.69,3.87.64Zm6.71-19.25c-1.51-.04-3.03.16-4.46.8-.57.26-1.3.51-1.32,1.22-.02.76.76,1,1.33,1.27,1.02.48,2.13.69,3.24.78,2.07.17,4.09,0,5.98-.94.47-.23,1.05-.49,1.06-1.07.01-.62-.59-.88-1.07-1.13-1.49-.75-3.08-.98-4.77-.94Zm3.26,39.82c.8-.02,1.6,0,2.4-.17,1.06-.22,2.11-.49,2.99-1.16.6-.46.6-.92.03-1.41-.36-.3-.78-.5-1.21-.68-1.05-.43-2.16-.61-3.27-.68-1.99-.13-3.93.08-5.74.98-.45.22-.99.48-1,1.05-.01.61.55.86,1.02,1.1,1.5.77,3.12,1,4.8.97Zm-14.06,6.72c-.78.02-1.56,0-2.33.16-1.1.22-2.19.5-3.1,1.21-.52.41-.54.84-.08,1.28.37.35.83.58,1.3.77,1.01.4,2.07.6,3.14.68,2.01.15,3.97-.05,5.8-.94.48-.23,1.07-.48,1.05-1.14-.02-.62-.6-.84-1.06-1.07-1.49-.75-3.09-.97-4.73-.94Zm-.05,9.51c1.57.04,3.08-.18,4.53-.8.95-.4,1.56-.99,1.37-2.12-.04-.21,0-.42,0-.63,0-.74-.01-.73-.7-.46-3.23,1.28-6.5,1.33-9.77.21-1.23-.42-1.14-.44-1.25.83-.1,1.23.49,1.82,1.51,2.23,1.4.56,2.84.78,4.32.74ZM53.06,16.48c1.03-.04,2.01-.28,2.86-.89,2.26-1.62,1.25-3.9-.34-4.81-.4-.23-.58-.16-.7.3-.44,1.65-1.21,3.15-2.26,4.5-.17.23-.56.44-.44.71.15.32.58.12.88.18Z"/>
      <path class="cls-2" d="m53.98,57.78c-.11,0-.21,0-.32,0-.74-.02-1.27-.47-1.31-1.11-.04-.65.49-1.22,1.25-1.24.8-.02,1.6-.11,2.38-.28.72-.16,1.42-.39,2.09-.71,2.49-1.2,3.51-3.34,3.77-5.95.02-.19,0-.38.02-.57.08-.68.6-1.16,1.22-1.13.63.02,1.12.52,1.12,1.22,0,1.74-.43,3.38-1.24,4.91-1.46,2.76-3.95,3.98-6.85,4.59-.7.15-1.41.25-2.13.26Z"/>
    </g>
  </g>
  <path class="cls-1" d="m40.05,30.44h11.08v.02c-.65,1.14-1.02,1.76-1.11,1.84h-2.95c.41.54.68,1.2.83,1.97h3.15s.05.03.05.05c-.71,1.2-1.07,1.8-1.09,1.81h-2.04c-.05.61-.3,1.35-.77,2.23-.64.88-1.25,1.45-1.82,1.71-1.07.58-2.09.87-3.07.87v.03c0,.08.24.44.72,1.07l5.47,7.49v.35s-.02.05-.05.05h-2.41c-4.33-5.72-6.5-8.59-6.5-8.62v-1.74l.03-.07c.38.06.83.09,1.34.09,2.42,0,3.93-.89,4.53-2.68.09-.26.14-.53.14-.8h-6.58s-.05-.02-.05-.07c.73-1.2,1.1-1.79,1.1-1.79h5.25v-.02c-.31-.69-.89-1.23-1.74-1.61-.62-.22-1.17-.34-1.66-.34h-2.92v-.07c.71-1.2,1.07-1.79,1.09-1.79Z"/>
</svg>