<?xml version="1.0" encoding="utf-8"?>
<!-- Generator: Adobe Illustrator 16.0.0, SVG Export Plug-In . SVG Version: 6.00 Build 0)  -->
<!DOCTYPE svg PUBLIC "-//W3C//DTD SVG 1.1//EN" "http://www.w3.org/Graphics/SVG/1.1/DTD/svg11.dtd">
<svg version="1.1" id="Layer_3" xmlns="http://www.w3.org/2000/svg" xmlns:xlink="http://www.w3.org/1999/xlink" x="0px" y="0px"
	 width="360px" height="360px" viewBox="0 0 360 360" enable-background="new 0 0 360 360" xml:space="preserve">
<g>
	<path fill="#666666" d="M180,354.5c96.166,0,174.273-78.559,174.273-174.725C354.273,83.607,276.166,5.5,180,5.5
		C83.833,5.5,5.726,83.607,5.726,179.775C5.726,275.941,83.833,354.5,180,354.5z M180,14.53
		c91.201,0,165.244,74.044,165.244,165.245S271.201,345.47,180,345.47S14.304,270.976,14.304,179.775S88.8,14.53,180,14.53z"/>
	<path fill="#666666" d="M179.976,317.498c76.109,0,137.722-61.613,137.722-137.723S255.682,42.051,179.976,42.051
		c-75.708,0-138.125,62.016-138.125,137.724C41.851,255.481,103.865,317.498,179.976,317.498z M179.976,50.106
		c71.679,0,129.668,57.988,129.668,129.669c0,71.68-58.392,129.668-129.668,129.668c-71.68,0-129.669-57.988-129.669-129.668
		C50.307,108.094,108.296,50.106,179.976,50.106z"/>
	<g>
		<path fill="#2867A0" d="M143.117,137.053h61.747c0.348,0.043,0.522,0.218,0.522,0.522v5.875c0,0.349-0.175,0.522-0.522,0.522
			h-23.236v0.522c3.307,1.785,5.874,5.44,7.702,10.965l0.261,1.893h15.273c0.348,0.044,0.522,0.218,0.522,0.522v5.875
			c0,0.349-0.175,0.522-0.522,0.522h-14.686c0,6.571-4.025,12.968-12.075,19.19c-7.137,4.091-12.206,6.136-15.208,6.136
			c0,0.174-0.174,0.261-0.522,0.261l33.158,42.948v0.522h-12.598c-0.131,0-12.946-16.622-38.445-49.867V183.2h3.981
			c14.099,0,22.562-5.069,25.391-15.208c0.173-1.218,0.261-2.197,0.261-2.938v-0.783h-31.004c-0.349,0-0.522-0.173-0.522-0.522
			v-5.875c0.043-0.348,0.217-0.522,0.522-0.522h30.743c-1.044-3.959-3.264-7.18-6.658-9.66c-4.7-2.48-8.986-3.721-12.858-3.721
			h-11.227c-0.349,0-0.522-0.173-0.522-0.522v-5.875C142.638,137.228,142.812,137.053,143.117,137.053z"/>
	</g>
</g>
</svg>
