<?xml version="1.0" encoding="utf-8"?>
<!-- Generator: Adobe Illustrator 16.0.0, SVG Export Plug-In . SVG Version: 6.00 Build 0)  -->
<!DOCTYPE svg PUBLIC "-//W3C//DTD SVG 1.1//EN" "http://www.w3.org/Graphics/SVG/1.1/DTD/svg11.dtd">
<svg version="1.1" id="Layer_3" xmlns="http://www.w3.org/2000/svg" xmlns:xlink="http://www.w3.org/1999/xlink" x="0px" y="0px"
	 width="360px" height="360px" viewBox="0 0 360 360" enable-background="new 0 0 360 360" xml:space="preserve">
<g>
	<path fill="#666666" stroke="#FFFFFF" stroke-width="3.5502" stroke-miterlimit="10" d="M333.338,135.025v2.113v0.528l-0.529,48.08
		c0,0,0,0,0,0.528c0,5.812,0,10.567-0.528,15.85c-1.058,23.777-9.51,46.494-26.417,69.214
		c-19.021,25.889-44.91,47.023-79.253,65.515c-10.565,5.284-21.133,10.038-31.701,14.794c-2.642,1.058-5.283,2.113-7.396,3.17
		c-2.643,1.057-5.283,1.585-7.925,1.585c-2.113,0-4.227-0.528-6.34-1.056c-42.796-15.851-76.083-36.984-103.028-63.93
		c-21.133-21.136-33.813-43.853-39.625-68.156c-2.642-10.568-3.699-21.136-3.699-31.175c-0.528-29.058,0-58.117,0-86.647
		c0-10.039,0-20.606,0-30.645c0-12.152,5.284-17.964,17.436-18.492C85.543,53.66,124.641,38.337,167.965,8.75
		c10.039-6.869,14.266-6.869,24.831,0c32.76,22.719,61.817,36.456,92.461,43.324c7.926,1.585,15.852,2.642,24.305,3.698
		c2.642,0.529,5.812,0.529,8.454,1.057c12.681,1.585,15.322,10.039,15.322,16.908c0,15.85,0,32.229,0,48.079V135.025
		L333.338,135.025z M314.845,118.117c0-15.321,0-30.115,0-45.438c-2.642-0.528-4.755-0.528-7.397-1.057
		c-8.452-1.057-17.435-2.113-26.417-4.226C248.272,60,216.045,45.206,181.702,21.431c-0.528-0.529-1.058-1.057-1.586-1.057
		c-0.528,0.528-1.056,1.057-1.584,1.057C132.038,53.131,89.77,69.51,45.389,72.68l0,0c0,10.039,0,20.606,0,30.644
		c0,28.531,0,57.59,0,86.648c0,8.983,1.057,17.965,3.17,27.476c4.755,21.134,16.379,40.684,34.871,59.703
		c24.832,25.359,56.533,44.908,96.159,59.702h0.528c2.642-1.056,5.284-2.113,7.397-3.168c10.038-4.229,20.605-8.984,30.116-13.738
		c31.7-16.908,55.475-36.456,72.911-59.703c14.265-19.549,21.662-39.098,22.719-59.175c0-4.755,0.529-9.51,0.529-15.322l0,0v-1.585
		l0.527-47.023v-0.528v-1.584l0,0v-16.908H314.845z"/>
	<path fill="#2867A0" stroke="#FFFFFF" stroke-width="3.5502" stroke-miterlimit="10" d="M234.536,147.177
		c3.699,3.698,3.699,9.51,0,13.208l-67.1,67.1c-1.585,1.584-4.227,2.642-6.34,2.642c-0.529,0-1.056,0-1.585,0
		c-1.585-0.528-3.169-1.058-4.754-2.642l0,0l-28.53-28.53c-3.699-3.699-3.699-9.51,0-13.209c3.698-3.698,9.51-3.698,13.208,0
		l21.662,21.662l60.232-60.231C225.025,143.478,230.839,143.478,234.536,147.177z"/>
</g>
</svg>
